<?xml version="1.0" encoding="UTF-8"?>
<svg version="1.1" xmlns="http://www.w3.org/2000/svg" width="512" height="512">
<path d="M0 0 C0.62003906 0.41378906 1.24007813 0.82757813 1.87890625 1.25390625 C2.57113281 1.67800781 3.26335937 2.10210938 3.9765625 2.5390625 C12.20976404 8.06377157 16.4211071 15.53839951 18.47265625 25.13671875 C19.94579059 36.4401919 16.6371508 44.79393306 10.87890625 54.25390625 C11.74773437 55.01574219 12.6165625 55.77757812 13.51171875 56.5625 C19.90247958 62.25171171 25.80998149 67.60544631 29.87890625 75.25390625 C30.26433594 75.96933594 30.64976562 76.68476562 31.046875 77.421875 C36.26432982 88.063976 36.15128466 99.32214773 36.00390625 110.94140625 C35.99384684 112.33658205 35.98472627 113.73176495 35.9765625 115.12695312 C35.95320031 118.50278995 35.92044293 121.87825243 35.87890625 125.25390625 C36.74056396 125.22248535 36.74056396 125.22248535 37.61962891 125.19042969 C40.24753999 125.10676861 42.87517015 125.05509165 45.50390625 125.00390625 C46.40753906 124.97039062 47.31117188 124.936875 48.2421875 124.90234375 C54.006413 124.81819447 57.350067 125.32660748 61.87890625 129.25390625 C63.7421875 131.17578125 63.7421875 131.17578125 65.19140625 133.00390625 C66.06985144 134.10138633 66.96085999 135.18933143 67.87890625 136.25390625 C68.20890625 136.25390625 68.53890625 136.25390625 68.87890625 136.25390625 C69.02585937 135.62484375 69.1728125 134.99578125 69.32421875 134.34765625 C70.841773 128.55652969 72.76679096 124.49649316 76.671875 119.9453125 C78.16934749 118.19323366 78.16934749 118.19323366 77.87890625 115.25390625 C76.66254128 113.1976185 76.66254128 113.1976185 75.06640625 111.06640625 C69.10661636 102.27465946 67.82571709 94.96330165 68.87890625 84.25390625 C71.1244497 74.2948576 75.80272495 67.05978331 84.25390625 61.37890625 C92.97259063 56.22054716 101.48028179 54.95340948 111.5234375 56.71875 C120.97826752 59.17322968 128.38630451 65.24444143 133.87890625 73.25390625 C138.38365293 81.75844276 139.38854508 90.84218177 137.18359375 100.20703125 C135.07282527 106.55707426 131.84792147 111.89573571 127.87890625 117.25390625 C128.265625 117.70378906 128.65234375 118.15367188 129.05078125 118.6171875 C138.52772618 130.32262196 138.34597696 141.72583795 138.02854347 156.15950775 C137.95963025 159.55264745 137.92609276 162.94444855 137.90324402 166.3381958 C137.83709685 175.98072916 137.74945464 185.62159809 137.53979492 195.26220703 C135.53541572 230.57696684 135.53541572 230.57696684 150.6394043 261.09472656 C151.70268354 262.16449936 152.77573866 263.22531603 153.87890625 264.25390625 C154.21164551 263.32739258 154.54438477 262.40087891 154.88720703 261.44628906 C157.22296878 254.99900632 159.54384045 249.57984423 163.87890625 244.25390625 C163.17314453 243.34511719 163.17314453 243.34511719 162.453125 242.41796875 C155.93219139 233.64238522 152.62376209 225.29229738 153.87890625 214.25390625 C155.96311158 203.62284342 160.99135559 195.50693296 169.87890625 189.25390625 C178.77017049 184.4280556 187.80633545 182.61456865 197.828125 184.9375 C208.47301007 188.51548787 215.35555691 194.46115715 220.87890625 204.25390625 C224.37784806 212.60471405 224.43939013 224.28196403 221.25390625 232.81640625 C219.07196155 237.39221114 216.12619291 241.37881083 212.87890625 245.25390625 C213.78640625 246.20265625 214.69390625 247.15140625 215.62890625 248.12890625 C221.86520851 255.46913233 223.48225611 263.26194551 223.18676758 272.67871094 C223.17301086 273.66895767 223.15925415 274.65920441 223.14508057 275.67945862 C223.11441399 277.81455321 223.07531311 279.9495404 223.02854347 282.08434296 C222.95972866 285.48552861 222.9261144 288.88538093 222.90324402 292.28717041 C222.8370376 301.95354358 222.74938669 311.61825954 222.53979492 321.28271484 C222.41371081 327.21474419 222.36344079 333.14356857 222.35931969 339.07688141 C222.34398441 341.31425878 222.30180396 343.55164761 222.23002052 345.78792572 C221.68250649 363.34851298 226.28367359 373.70836521 237.41291332 387.28680801 C239.70659898 390.36452068 240.009524 392.98649276 240.0559082 396.70605469 C240.07516106 398.05325592 240.07516106 398.05325592 240.09480286 399.42767334 C240.10588326 400.88079926 240.10588326 400.88079926 240.1171875 402.36328125 C240.12525925 403.36345276 240.13333099 404.36362427 240.14164734 405.394104 C240.1554811 407.51239288 240.16620642 409.63070399 240.17407227 411.74902344 C240.19126641 414.97764719 240.23515733 418.20524189 240.27929688 421.43359375 C240.2894258 423.49348207 240.29794128 425.55337908 240.3046875 427.61328125 C240.32219559 428.57393494 240.33970367 429.53458862 240.35774231 430.52435303 C240.33806676 436.64944419 239.49593358 440.26011187 235.87890625 445.25390625 C230.57068787 449.4562458 226.76658627 450.39542625 220.12890625 450.31640625 C219.1440625 450.30738281 218.15921875 450.29835938 217.14453125 450.2890625 C216.396875 450.27746094 215.64921875 450.26585937 214.87890625 450.25390625 C214.8877887 450.81243286 214.89667114 451.37095947 214.90582275 451.94641113 C214.99467249 457.78676058 215.0547957 463.62691642 215.09863281 469.46777344 C215.11868389 471.64428513 215.14593196 473.82074339 215.18066406 475.99707031 C215.22946837 479.13490018 215.25194063 482.2720146 215.26953125 485.41015625 C215.29017639 486.37505981 215.31082153 487.33996338 215.33209229 488.33410645 C215.33411136 494.48475626 214.42029227 499.13444392 210.87890625 504.25390625 C206.91558775 508.02389214 203.82537375 509.36364474 198.41088867 509.4309082 C197.50952682 509.44374344 196.60816498 509.45657867 195.67948914 509.46980286 C194.22165764 509.48088326 194.22165764 509.48088326 192.734375 509.4921875 C191.73183182 509.50025925 190.72928864 509.50833099 189.69636536 509.51664734 C187.57388027 509.53047988 185.45137301 509.54120575 183.32885742 509.54907227 C180.08925064 509.56628487 176.8506645 509.610179 173.61132812 509.65429688 C171.54818458 509.66442412 169.48503237 509.67294012 167.421875 509.6796875 C166.45606003 509.69719559 165.49024506 509.71470367 164.49516296 509.73274231 C158.76421748 509.71433439 155.39669016 509.13890754 150.87890625 505.25390625 C147.3356146 501.2317914 145.7514377 498.946892 145.76538086 493.62060547 C145.76550171 492.64631592 145.76562256 491.67202637 145.76574707 490.66821289 C145.77086304 489.64203857 145.775979 488.61586426 145.78125 487.55859375 C145.78225708 486.61701416 145.78326416 485.67543457 145.78430176 484.70532227 C145.78954338 481.17983791 145.80350459 477.65437089 145.81640625 474.12890625 C145.83703125 466.25015625 145.85765625 458.37140625 145.87890625 450.25390625 C117.82890625 450.25390625 89.77890625 450.25390625 60.87890625 450.25390625 C60.87890625 463.45390625 60.87890625 476.65390625 60.87890625 490.25390625 C55.2302576 501.55120355 55.2302576 501.55120355 51.87890625 504.25390625 C51.23953125 504.79015625 50.60015625 505.32640625 49.94140625 505.87890625 C46.03009036 508.48645017 42.53109841 509.50299189 37.85173035 509.52133179 C36.86354813 509.52986176 35.87536591 509.53839172 34.85723877 509.54718018 C33.78439636 509.5462738 32.71155396 509.54536743 31.60620117 509.54443359 C30.46740005 509.55115082 29.32859894 509.55786804 28.1552887 509.56478882 C24.38993976 509.58378926 20.6247689 509.58769414 16.859375 509.58984375 C14.2400963 509.59627042 11.62081832 509.60299868 9.00154114 509.61001587 C3.50972333 509.62279661 -1.98204628 509.62578185 -7.47387695 509.62451172 C-13.80814777 509.62331114 -20.14207739 509.6443994 -26.47626191 509.67599905 C-32.58397044 509.7053757 -38.69151614 509.71248584 -44.79929161 509.71129227 C-47.39119548 509.71365023 -49.98310195 509.72248468 -52.57496071 509.737957 C-56.20366196 509.75758974 -59.83148923 509.75178842 -63.46020508 509.73974609 C-64.52697479 509.75098511 -65.59374451 509.76222412 -66.69284058 509.77380371 C-74.22349634 509.71041634 -79.46837207 508.3894284 -85.328125 503.359375 C-85.85792969 502.72644531 -86.38773438 502.09351563 -86.93359375 501.44140625 C-87.74763672 500.50361328 -87.74763672 500.50361328 -88.578125 499.546875 C-98.75432585 484.42426765 -93.12109375 470.33225783 -93.12109375 450.25390625 C-121.17109375 450.25390625 -149.22109375 450.25390625 -178.12109375 450.25390625 C-177.96303276 465.78079885 -177.96303276 465.78079885 -177.76074219 481.30712891 C-177.74905436 483.26073329 -177.73886276 485.21434744 -177.73046875 487.16796875 C-177.71000488 488.1736792 -177.68954102 489.17938965 -177.66845703 490.21557617 C-177.66546217 496.24872594 -178.10903254 499.65679093 -182.12109375 504.25390625 C-185.99401973 507.66576961 -188.32404336 509.36704426 -193.4597168 509.4309082 C-194.35792648 509.44374344 -195.25613617 509.45657867 -196.18156433 509.46980286 C-197.15547623 509.47718979 -198.12938812 509.48457672 -199.1328125 509.4921875 C-200.13439896 509.50025925 -201.13598541 509.50833099 -202.16792297 509.51664734 C-204.29218817 509.53049592 -206.41647568 509.5412146 -208.54077148 509.54907227 C-211.77826656 509.56624538 -215.01473001 509.61012039 -218.25195312 509.65429688 C-220.31639874 509.66442727 -222.38085305 509.67294228 -224.4453125 509.6796875 C-225.40910324 509.69719559 -226.37289398 509.71470367 -227.3658905 509.73274231 C-233.49957597 509.71310873 -237.12361367 508.88281919 -242.12109375 505.25390625 C-245.59097832 500.77958141 -247.25006153 497.32714427 -247.23461914 491.69067383 C-247.23454361 490.76994583 -247.23446808 489.84921783 -247.23439026 488.90058899 C-247.22922897 487.909879 -247.22406769 486.91916901 -247.21875 485.8984375 C-247.21733505 484.88166428 -247.2159201 483.86489105 -247.21446228 482.81730652 C-247.20886082 479.56697661 -247.19630807 476.31671537 -247.18359375 473.06640625 C-247.17857894 470.86393329 -247.174016 468.66145924 -247.16992188 466.45898438 C-247.15889092 461.05726821 -247.14215137 455.65559213 -247.12109375 450.25390625 C-247.8702002 450.26768311 -248.61930664 450.28145996 -249.39111328 450.2956543 C-250.37708496 450.30636963 -251.36305664 450.31708496 -252.37890625 450.328125 C-253.3548877 450.34190186 -254.33086914 450.35567871 -255.33642578 450.36987305 C-260.63802401 450.14908932 -263.90251629 448.31000671 -267.93359375 444.81640625 C-271.05682626 441.15776245 -272.36184269 438.53970595 -272.42749023 433.7199707 C-272.44347763 432.82836746 -272.45946503 431.93676422 -272.47593689 431.0181427 C-272.48129959 430.06082748 -272.48666229 429.10351227 -272.4921875 428.1171875 C-272.50121597 427.12317429 -272.51024445 426.12916107 -272.51954651 425.10502625 C-272.53404797 423.00111907 -272.54293548 420.8971668 -272.54663086 418.79321289 C-272.55848745 415.59507779 -272.60764132 412.39889762 -272.65820312 409.20117188 C-272.66767258 407.15235312 -272.67490511 405.10352256 -272.6796875 403.0546875 C-272.69921982 402.10749344 -272.71875214 401.16029938 -272.73887634 400.18440247 C-272.68207006 391.70360541 -269.79384747 386.39179399 -264.38253784 379.98600769 C-254.78569982 368.18342361 -254.64318171 357.88004807 -254.96875 343.07421875 C-254.97700582 340.76692988 -254.97978868 338.45961564 -254.97740173 336.15231323 C-254.98302775 330.12189306 -255.05056688 324.09391459 -255.13537598 318.06414795 C-255.2618727 308.39611565 -255.29764943 298.72750918 -255.32446098 289.05877304 C-255.3433912 285.70037322 -255.39180246 282.34339906 -255.44459534 278.98538208 C-255.46126817 276.91490238 -255.47724999 274.84441696 -255.49243164 272.77392578 C-255.5147435 271.85318771 -255.53705536 270.93244965 -255.56004333 269.98381042 C-255.578892 261.67924944 -253.17101801 254.13335875 -247.87109375 247.62890625 C-247.3503125 246.97664062 -246.82953125 246.324375 -246.29296875 245.65234375 C-245.71289062 244.96011719 -245.71289062 244.96011719 -245.12109375 244.25390625 C-246.02859375 243.30515625 -246.93609375 242.35640625 -247.87109375 241.37890625 C-255.22896158 232.59131055 -256.16761634 223.236951 -255.34863281 212.15234375 C-254.84780273 207.97374426 -253.40475359 204.73986675 -251.12109375 201.25390625 C-250.69699219 200.56039062 -250.27289063 199.866875 -249.8359375 199.15234375 C-244.97753431 191.92563817 -237.90618866 187.14678533 -229.55859375 184.7265625 C-219.26877833 182.73126175 -209.12935806 184.23991046 -200.35546875 190.1015625 C-192.09226174 196.91747128 -187.01251597 205.82192888 -185.8828125 216.5078125 C-185.529181 227.50761342 -189.56628053 236.60155279 -196.12109375 245.25390625 C-195.734375 245.70378906 -195.34765625 246.15367187 -194.94921875 246.6171875 C-191.74623882 250.57334341 -189.58472513 254.21690488 -187.91796875 259.046875 C-187.57604492 260.02551514 -187.23412109 261.00415527 -186.88183594 262.01245117 C-186.63079102 262.75213135 -186.37974609 263.49181152 -186.12109375 264.25390625 C-174.45663436 253.37799865 -170.37287079 242.02342053 -169.71952629 226.49279022 C-169.41293309 214.87688346 -169.60812158 203.25670601 -169.86071777 191.64178467 C-170.05274399 182.05607385 -170.10415982 172.46832333 -170.16870689 162.88108063 C-170.20240216 159.55953616 -170.26896044 156.24001354 -170.34199524 152.91912842 C-170.55152865 140.6565687 -170.32218247 130.3963247 -162.87109375 120.06640625 C-162.3503125 119.33035156 -161.82953125 118.59429687 -161.29296875 117.8359375 C-160.90625 117.31386719 -160.51953125 116.79179688 -160.12109375 116.25390625 C-160.5078125 115.80402344 -160.89453125 115.35414062 -161.29296875 114.890625 C-168.01817595 106.58399532 -170.88524783 98.17663584 -170.50390625 87.4609375 C-169.50321333 79.07758149 -166.20689487 71.20167889 -160.12109375 65.25390625 C-150.58033487 57.86091391 -142.1039673 55.2148319 -130.12109375 56.25390625 C-121.53042396 57.6878572 -113.9945744 61.78513279 -108.265625 68.39453125 C-101.66148162 77.72186462 -99.97047079 86.90281687 -101.12109375 98.25390625 C-102.8882719 105.42245944 -106.83125566 111.33392969 -111.12109375 117.25390625 C-110.37859375 118.07890625 -109.63609375 118.90390625 -108.87109375 119.75390625 C-104.87244445 124.55910129 -101.90454171 129.98632256 -101.12109375 136.25390625 C-100.41984375 135.53203125 -99.71859375 134.81015625 -98.99609375 134.06640625 C-90.30370177 125.37401427 -90.30370177 125.37401427 -86.05810547 125.14038086 C-85.23068848 125.14561768 -84.40327148 125.15085449 -83.55078125 125.15625 C-82.65488281 125.15947266 -81.75898438 125.16269531 -80.8359375 125.16601562 C-79.43021484 125.17858398 -79.43021484 125.17858398 -77.99609375 125.19140625 C-77.05121094 125.19591797 -76.10632813 125.20042969 -75.1328125 125.20507812 C-72.79550988 125.21688268 -70.45833314 125.23334866 -68.12109375 125.25390625 C-68.14465942 124.0006958 -68.14465942 124.0006958 -68.16870117 122.72216797 C-68.22057131 119.5499919 -68.25779715 116.37803554 -68.28588867 113.20556641 C-68.30796542 111.18637513 -68.34613032 109.16737983 -68.38476562 107.1484375 C-68.5118951 89.94358189 -65.32519291 75.240996 -52.99609375 62.69140625 C-49.83576624 59.69767747 -46.54520004 56.94079393 -43.12109375 54.25390625 C-43.88421875 53.18140625 -44.64734375 52.10890625 -45.43359375 51.00390625 C-50.91437356 42.1347241 -52.1751374 32.39750538 -50.12109375 22.25390625 C-47.23091801 12.82359056 -41.6749472 5.80513729 -33.46484375 0.48046875 C-24.11962566 -4.41019538 -9.40100038 -5.28001391 0 0 Z M-29.40234375 20.8671875 C-32.53332983 25.91031151 -33.55046759 30.02896909 -32.43359375 35.81640625 C-30.33978425 41.30019304 -27.50155436 44.80824234 -22.12109375 47.25390625 C-16.05107634 48.62455534 -12.69921989 48.41133614 -7.12109375 45.25390625 C-3.35107423 41.90277778 -0.57563845 39.03712006 0.69140625 34.06640625 C0.98974623 28.00016007 -0.6498465 23.98922352 -4.55859375 19.37890625 C-9.2081873 15.52314574 -12.62153632 14.79598287 -18.5859375 14.9453125 C-23.17486968 15.50390363 -26.44707926 17.14607704 -29.40234375 20.8671875 Z M-42.2109375 77.71875 C-53.02603113 92.07252457 -50.12109375 107.22284628 -50.12109375 125.25390625 C-27.68109375 125.25390625 -5.24109375 125.25390625 17.87890625 125.25390625 C19.22619992 97.39172749 19.22619992 97.39172749 7.31640625 75.00390625 C0.62466594 68.74994334 -7.02984729 66.01021681 -16.12109375 65.62890625 C-26.76831516 66.08672503 -34.99638696 69.87570867 -42.2109375 77.71875 Z M-149.05859375 81.31640625 C-152.19522639 85.78373153 -152.83068315 89.89256409 -152.12109375 95.25390625 C-150.06878842 100.78620757 -146.37376402 104.62757111 -141.12109375 107.25390625 C-135.8653421 107.77776385 -131.4758328 107.91895997 -126.68359375 105.56640625 C-121.86944626 101.22193169 -119.30335696 98.03342021 -118.87109375 91.44140625 C-118.94583328 87.36062807 -119.82202701 84.70250636 -122.12109375 81.25390625 C-126.23024963 77.32340932 -129.7992491 74.79258376 -135.43359375 73.87890625 C-140.88926112 74.64016216 -145.46522638 77.13976766 -149.05859375 81.31640625 Z M89.94140625 81.31640625 C86.80477361 85.78373153 86.16931685 89.89256409 86.87890625 95.25390625 C88.93121158 100.78620757 92.62623598 104.62757111 97.87890625 107.25390625 C103.0279681 107.76712973 107.48444971 107.87366471 112.25390625 105.75390625 C116.6006474 101.61415277 120.11723805 97.33757893 120.37890625 91.12890625 C119.64284807 85.42445536 118.16227548 82.48147682 114.00390625 78.50390625 C105.45424142 72.34814757 96.93470726 73.18796073 89.94140625 81.31640625 Z M-146.98828125 129.9140625 C-151.44396155 134.93469748 -152.26920011 138.83752173 -152.23461914 145.47924805 C-152.23476517 146.21120392 -152.23491119 146.94315979 -152.23506165 147.69729614 C-152.23436515 150.11593594 -152.22658503 152.53449866 -152.21875 154.953125 C-152.21688489 156.63035541 -152.21546142 158.30758636 -152.21446228 159.9848175 C-152.21064445 164.39891057 -152.20082041 168.81297072 -152.1897583 173.22705078 C-152.17952842 177.73144078 -152.17496128 182.2358361 -152.16992188 186.74023438 C-152.1591975 195.57813946 -152.14212986 204.41602012 -152.12109375 213.25390625 C-149.22951039 210.42335243 -146.91015776 207.66880418 -144.6875 204.28125 C-143.72263672 202.82380371 -143.72263672 202.82380371 -142.73828125 201.33691406 C-141.3421934 199.1996522 -139.9504152 197.0595703 -138.5625 194.91699219 C-135.29072856 189.89820149 -132.03650324 185.02011009 -128.1796875 180.4296875 C-118.07593338 168.0984934 -117.20223117 156.77539991 -118.67456055 141.05712891 C-119.56772357 135.45007707 -121.86829095 131.73448079 -126.39453125 128.30078125 C-133.28062434 124.12550309 -140.84984489 124.45624774 -146.98828125 129.9140625 Z M93.87890625 128.25390625 C86.82071725 134.5294927 86.05453907 141.40027478 85.50390625 150.50390625 C84.89359513 168.5747817 94.63545969 180.22789921 105.30126953 193.90478516 C108.63047889 198.18680416 111.63619221 202.6704866 114.62890625 207.19140625 C116.01209339 209.24372846 117.41585963 211.25678288 118.87890625 213.25390625 C119.20890625 213.25390625 119.53890625 213.25390625 119.87890625 213.25390625 C119.97174111 203.5960806 120.04273941 193.93840945 120.08615494 184.28023434 C120.10699625 179.79514195 120.1352503 175.31035568 120.18066406 170.82543945 C120.22424576 166.49416167 120.24806934 162.16317765 120.25841522 157.83169746 C120.26578455 156.18232158 120.28017523 154.53296109 120.30182648 152.88371086 C120.3310255 150.5665752 120.33485555 148.25064075 120.33300781 145.93334961 C120.34633148 143.95811562 120.34633148 143.95811562 120.35992432 141.94297791 C119.65118283 136.50742712 117.48138586 132.90089918 113.62890625 128.94140625 C106.88912413 124.80563086 100.90722933 124.29885359 93.87890625 128.25390625 Z M-97.56953812 165.29775429 C-99.62880079 169.22123165 -102.06443064 172.7884556 -104.63671875 176.38671875 C-105.43206837 177.55458156 -106.22481264 178.72422772 -107.01367188 179.89648438 C-107.39724854 180.46310791 -107.7808252 181.02973145 -108.17602539 181.61352539 C-108.57039795 182.19610107 -108.96477051 182.77867676 -109.37109375 183.37890625 C-110.25062555 184.67775164 -111.1301837 185.97657918 -112.00976562 187.27539062 C-113.81715653 189.94426875 -115.62444 192.61321959 -117.43164062 195.28222656 C-121.39105504 201.12958555 -125.3518831 206.97598689 -129.31262207 212.82244873 C-131.49883886 216.04956089 -133.68496148 219.27673684 -135.87109375 222.50390625 C-136.7460933 223.79557322 -137.6210933 225.08723989 -138.49609375 226.37890625 C-138.92921875 227.01828125 -139.36234375 227.65765625 -139.80859375 228.31640625 C-206.74609375 327.12890625 -206.74609375 327.12890625 -208.05838013 329.06608582 C-208.9340985 330.35881633 -209.80981057 331.65155112 -210.68551636 332.94429016 C-212.86197377 336.15721484 -215.03853779 339.37006719 -217.21533203 342.58276367 C-221.28448384 348.58860308 -225.35257893 354.59515023 -229.41705322 360.60415649 C-231.31889183 363.41573935 -233.22131444 366.22692681 -235.1237793 369.03808594 C-236.02299569 370.36715368 -236.92193182 371.69641111 -237.82055664 373.02587891 C-239.07365141 374.87972695 -240.32766649 376.73294858 -241.58203125 378.5859375 C-241.97215393 379.16308502 -242.36227661 379.74023254 -242.76422119 380.33486938 C-245.74556654 384.73323679 -248.81093623 389.06698255 -251.92822266 393.36987305 C-253.29940711 395.16388369 -253.29940711 395.16388369 -253.12109375 397.25390625 C-237.722918 397.38621321 -222.32472724 397.51665863 -206.92651844 397.64505768 C-199.7722126 397.70475493 -192.6179123 397.76500509 -185.46362305 397.82666016 C-177.18930452 397.89789033 -168.91497476 397.96764649 -160.640625 398.03515625 C-159.96930369 398.04063351 -159.29798238 398.04611076 -158.606318 398.051754 C-136.77756706 398.22885142 -114.95049946 398.32656521 -93.12109375 398.25390625 C-93.10644577 397.66410477 -93.09179779 397.07430328 -93.07670593 396.46662903 C-92.51579484 374.88563302 -88.06070549 354.69707634 -73.12109375 338.25390625 C-72.46753906 337.50882813 -71.81398437 336.76375 -71.140625 335.99609375 C-64.81941135 329.20280403 -57.40297909 324.39484892 -49.12109375 320.25390625 C-50.55660198 316.96542057 -52.35722896 314.8546302 -54.87109375 312.31640625 C-62.25244527 304.14323702 -66.0642381 294.14119699 -67.12109375 283.25390625 C-67.19199219 282.53074219 -67.26289063 281.80757812 -67.3359375 281.0625 C-67.94574036 267.81758194 -63.29618319 254.88397966 -55.015625 244.65234375 C-45.1841341 234.24662418 -32.79421399 228.34369462 -18.44946289 227.78100586 C-3.02715364 227.60150745 9.45219298 232.45553346 21.06640625 242.69140625 C28.87252536 250.964283 34.06262225 262.97104738 34.87890625 274.25390625 C34.94722656 274.97320312 35.01554687 275.6925 35.0859375 276.43359375 C35.72824169 289.42241191 31.27788318 303.03827667 22.64453125 312.7734375 C21.2571217 314.13870754 19.83962675 315.47467195 18.3828125 316.765625 C17.88652344 317.25675781 17.39023437 317.74789062 16.87890625 318.25390625 C16.87890625 318.91390625 16.87890625 319.57390625 16.87890625 320.25390625 C18.63125703 321.34084548 20.43398075 322.34684896 22.25390625 323.31640625 C28.61285125 326.92978323 33.71207716 331.10459183 38.87890625 336.25390625 C39.57757813 336.929375 40.27625 337.60484375 40.99609375 338.30078125 C56.99377527 354.85869286 59.77022592 376.08029961 60.87890625 398.25390625 C114.00890625 398.25390625 167.13890625 398.25390625 221.87890625 398.25390625 C216.33563674 389.51767539 216.33563674 389.51767539 210.62109375 380.91015625 C210.24435516 380.35548676 209.86761658 379.80081726 209.47946167 379.2293396 C208.66581175 378.0316484 207.85147597 376.83442289 207.03649902 375.63763428 C204.73291858 372.25439438 202.43520017 368.8671739 200.13671875 365.48046875 C199.64067139 364.74982208 199.14462402 364.01917542 198.63354492 363.26638794 C192.27789136 353.90125347 185.9546937 344.51422626 179.62890625 335.12890625 C177.13426243 331.42828573 174.6394487 327.7277798 172.14453125 324.02734375 C171.22306808 322.66062531 171.22306808 322.66062531 170.2829895 321.26629639 C164.32109759 312.42468439 158.35077974 303.58877815 152.37890625 294.75390625 C143.41257552 281.48846025 134.45543136 268.21684749 125.50390625 254.94140625 C114.98904025 239.34752022 104.47120102 223.75565041 93.94677734 208.16821289 C92.84341717 206.53402186 91.74006432 204.89982589 90.63671875 203.265625 C90.09022675 202.45619949 89.54373474 201.64677399 88.98068237 200.81282043 C85.42293095 195.54272369 81.86732889 190.27118229 78.3130188 184.99876404 C75.84593743 181.33924332 73.3782191 177.68015233 70.91046143 174.02108765 C69.73985727 172.28499294 68.56955978 170.54869142 67.39959717 168.81216431 C65.77370783 166.3989758 64.14672624 163.98652698 62.51953125 161.57421875 C62.05086639 160.87798904 61.58220154 160.18175934 61.09933472 159.46443176 C60.20994019 158.14675507 59.30942954 156.83648394 58.39576721 155.53551674 C56.87890625 153.25390625 56.87890625 153.25390625 55.51429939 150.71280766 C53.26374905 146.83555805 51.51523566 143.84744575 47.18404388 142.27640915 C43.83873535 141.84416987 40.61017944 141.73140514 37.23681641 141.72192383 C35.97562988 141.68030624 34.71444336 141.63868866 33.41503906 141.59580994 C29.96791538 141.48651426 26.52300506 141.44215547 23.07434511 141.41667771 C20.91220004 141.3983887 18.75062256 141.36715412 16.58869553 141.33167076 C9.02160279 141.20929069 1.45621481 141.14397419 -6.11181641 141.1262207 C-13.12770002 141.10809819 -20.13256856 140.95912828 -27.14509046 140.74919778 C-33.19507282 140.57454859 -39.24145131 140.4984604 -45.2939316 140.49499053 C-48.89782668 140.4910559 -52.49052731 140.44905209 -56.0917778 140.30500221 C-78.45883286 139.46453193 -87.59006689 145.78477281 -97.56953812 165.29775429 Z M-232.93359375 207.69140625 C-236.89359704 212.33026725 -237.57008143 215.77479829 -237.4375 221.78515625 C-236.80622205 226.71068299 -234.09055753 229.39985482 -230.49609375 232.56640625 C-225.82370534 235.88626117 -221.74201772 235.85223549 -216.12109375 235.25390625 C-212.13242448 233.93937306 -209.5285834 231.71501296 -206.74609375 228.56640625 C-204.38483733 223.75307586 -203.20781041 219.2999748 -204.78515625 214.0390625 C-207.31787154 208.51033033 -210.48926492 205.3281221 -216.18359375 203.00390625 C-222.90700889 201.28728962 -227.79497179 203.23793389 -232.93359375 207.69140625 Z M177.3359375 206.6171875 C173.4321615 211.04757258 171.61420802 214.76908341 171.94140625 220.62890625 C172.63655546 225.47878445 174.42971788 228.79534508 177.87890625 232.25390625 C182.80514968 235.80538407 187.99906327 236.11577249 193.87890625 235.25390625 C198.86559632 232.76056122 202.37566099 229.26039676 204.87890625 224.25390625 C205.71137923 217.8557568 205.10031219 213.15388488 201.29296875 207.87890625 C197.85589005 203.92911416 194.19551375 202.65639314 188.99609375 202.1953125 C184.54642 202.31845845 180.68802907 203.65546609 177.3359375 206.6171875 Z M-43.12109375 258.25390625 C-48.8918139 266.86307005 -51.31105744 275.61190574 -49.49609375 285.87890625 C-46.87558776 295.55064218 -41.05868572 303.70341584 -32.4296875 308.86328125 C-23.75549058 312.9751509 -15.2068421 313.78819021 -5.8828125 311.4375 C3.64238744 307.96388833 10.33618962 301.93845509 14.87890625 292.87890625 C18.24682733 284.53485264 19.07322342 275.77208538 15.87890625 267.25390625 C11.57771462 257.95403245 5.14567752 250.70155983 -4.43359375 246.75390625 C-19.38022212 242.08438776 -33.0391513 246.444638 -43.12109375 258.25390625 Z M-236.12109375 263.25390625 C-237.61391768 266.23955411 -237.24026352 268.94374343 -237.23461914 272.27392578 C-237.23476517 272.99598206 -237.23491119 273.71803833 -237.23506165 274.4619751 C-237.23436382 276.85358666 -237.2265775 279.24512076 -237.21875 281.63671875 C-237.21688536 283.29295814 -237.21546167 284.94919809 -237.21446228 286.60543823 C-237.21064074 290.96858233 -237.20081353 295.33169325 -237.1897583 299.69482422 C-237.17953639 304.14550324 -237.17496299 308.59618762 -237.16992188 313.046875 C-237.15919095 321.78256733 -237.14211887 330.51823266 -237.12109375 339.25390625 C-229.85218989 330.20343428 -223.32297608 320.68886472 -216.93359375 311.00390625 C-215.56621068 308.93546601 -214.1977481 306.86773893 -212.828125 304.80078125 C-212.19277832 303.82955322 -211.55743164 302.8583252 -210.90283203 301.85766602 C-209.42002566 299.69075317 -207.85979984 297.76045065 -206.1640625 295.765625 C-202.84790963 291.16912829 -203.47428323 285.751732 -203.62109375 280.31640625 C-203.61851562 279.27033203 -203.6159375 278.22425781 -203.61328125 277.14648438 C-203.70210832 270.08029061 -204.24131108 263.89438623 -208.77734375 258.16015625 C-213.62434475 254.46329108 -217.46798746 253.43394281 -223.5703125 253.796875 C-229.47872693 254.85550362 -232.77048231 258.53823089 -236.12109375 263.25390625 Z M174.87890625 260.25390625 C169.6643721 269.59098976 170.00877345 281.96735344 171.87890625 292.25390625 C174.10776666 297.98783849 178.09020488 302.42518771 182.06445312 307.03320312 C185.4688982 311.19989209 188.319259 315.75059107 191.25390625 320.25390625 C192.38553351 321.96302494 193.5183045 323.67138702 194.65234375 325.37890625 C196.30661029 327.87380007 197.95558636 330.37148534 199.59082031 332.87890625 C200.40244629 334.11640625 200.40244629 334.11640625 201.23046875 335.37890625 C201.71596191 336.12398438 202.20145508 336.8690625 202.70166016 337.63671875 C203.09015137 338.17039062 203.47864258 338.7040625 203.87890625 339.25390625 C204.20890625 339.25390625 204.53890625 339.25390625 204.87890625 339.25390625 C204.97168876 329.70919441 205.0427129 320.16463842 205.08615494 310.61957359 C205.10700764 306.18713803 205.13528258 301.75501158 205.18066406 297.32275391 C205.22420502 293.04335121 205.24806079 288.76424537 205.25841522 284.48463821 C205.26579184 282.85397292 205.28019685 281.22332341 205.30182648 279.59278488 C205.33097134 277.30417848 205.33485781 275.01679021 205.33300781 272.72802734 C205.34633148 270.77610977 205.34633148 270.77610977 205.35992432 268.78475952 C204.63514467 263.4646047 202.21478586 260.43075258 198.25390625 256.94140625 C190.59973621 251.50291701 180.83486551 253.07585157 174.87890625 260.25390625 Z M-59.12109375 349.25390625 C-59.76691406 349.89070313 -60.41273438 350.5275 -61.078125 351.18359375 C-71.43617385 362.06067337 -75.5953382 376.43804578 -75.52514648 391.15380859 C-75.53200974 392.1812619 -75.53887299 393.20871521 -75.54594421 394.26730347 C-75.56407846 397.62496187 -75.56039658 400.98214746 -75.5546875 404.33984375 C-75.55925307 406.68869172 -75.56455976 409.03753835 -75.5705719 411.38638306 C-75.57947466 416.29003355 -75.57710904 421.19352089 -75.56713867 426.09716797 C-75.55560475 432.38203307 -75.57594288 438.66634 -75.60505581 444.95113182 C-75.62338453 449.79297455 -75.62313278 454.63468235 -75.61741829 459.47655106 C-75.61726492 461.79461073 -75.62332176 464.11267945 -75.63570976 466.43070602 C-75.65056857 469.66428787 -75.63998253 472.89682231 -75.62280273 476.13037109 C-75.6324707 477.0862915 -75.64213867 478.04221191 -75.65209961 479.02709961 C-75.60635582 483.13382892 -75.42012528 485.68651195 -73.48036194 489.36709595 C-70.42335946 491.81191498 -68.73801046 491.77656477 -64.87109375 491.56640625 C-63.7934375 491.52128906 -62.71578125 491.47617187 -61.60546875 491.4296875 C-60.37570313 491.34267578 -60.37570313 491.34267578 -59.12109375 491.25390625 C-59.11966873 490.2605426 -59.11824371 489.26717896 -59.11677551 488.24371338 C-59.10011091 478.88526725 -59.05735402 469.52725626 -58.98900318 460.16904068 C-58.95470219 455.35774747 -58.92961839 450.54677284 -58.92553711 445.73535156 C-58.92126079 441.09257854 -58.89285392 436.45052454 -58.84766197 431.80797577 C-58.83466554 430.0361932 -58.83038688 428.26432468 -58.83493996 426.49250031 C-58.83983097 424.01146167 -58.81382371 421.53253671 -58.78051758 419.05175781 C-58.78914322 418.31807983 -58.79776886 417.58440186 -58.80665588 416.82849121 C-58.72225581 413.0818617 -58.4021541 411.54672809 -55.76737976 408.80169678 C-52.48671071 406.88286092 -50.86057084 406.5527543 -47.12109375 407.25390625 C-43.61931997 409.96190668 -42.26479537 411.44452511 -41.4818573 415.85432434 C-41.44985155 417.26036354 -41.44483945 418.66718361 -41.46166992 420.07348633 C-41.45118622 420.84474854 -41.44070251 421.61601074 -41.42990112 422.41064453 C-41.40120157 424.94865399 -41.40743619 427.48529518 -41.4140625 430.0234375 C-41.40094429 431.78750819 -41.38563968 433.55156387 -41.36824036 435.31559753 C-41.32839155 439.95002161 -41.31820001 444.58405274 -41.31420898 449.21862793 C-41.30323554 454.78383278 -41.25538369 460.34882829 -41.21372223 465.91387177 C-41.15461128 474.36072628 -41.14231357 482.80648878 -41.12109375 491.25390625 C-24.62109375 491.25390625 -8.12109375 491.25390625 8.87890625 491.25390625 C8.90017578 482.78669922 8.90017578 482.78669922 8.921875 474.1484375 C8.94193367 470.57090097 8.96345239 466.99349269 8.99023438 463.41601562 C9.03259885 457.7384744 9.06957358 452.06125821 9.07446289 446.38354492 C9.07874352 441.80560207 9.1071863 437.22838682 9.15233803 432.65067101 C9.16532064 430.90483527 9.16961799 429.15891249 9.16506004 427.41303444 C9.16015921 424.96572078 9.18621985 422.52053792 9.21948242 420.07348633 C9.21085678 419.35275436 9.20223114 418.6320224 9.19334412 417.88945007 C9.28139826 414.02115832 9.79128753 412.36385495 12.23262024 409.30033875 C14.87890625 407.25390625 14.87890625 407.25390625 17.87890625 406.69140625 C21.689852 407.40595858 23.19361029 408.45623915 25.87890625 411.25390625 C26.38729039 414.05186966 26.57122686 416.25363036 26.53833008 419.05175781 C26.54881378 419.83262756 26.55929749 420.61349731 26.57009888 421.41802979 C26.59885459 423.99393422 26.59255717 426.56849503 26.5859375 429.14453125 C26.5990523 430.93245122 26.61435586 432.72035638 26.63175964 434.50823975 C26.67164834 439.21008095 26.68180256 443.91153493 26.68579102 448.61352539 C26.69511519 453.41304297 26.73252421 458.21233233 26.76757812 463.01171875 C26.8321933 472.42577055 26.86540114 481.83965211 26.87890625 491.25390625 C28.79361469 491.3893809 30.71109106 491.48611494 32.62890625 491.56640625 C34.22992188 491.65341797 34.22992188 491.65341797 35.86328125 491.7421875 C38.97954275 491.49200972 38.97954275 491.49200972 41.23817444 489.36036682 C43.56982289 484.94576723 43.43098707 481.1616483 43.38061523 476.23803711 C43.38601822 475.23245758 43.3914212 474.22687805 43.39698792 473.19082642 C43.40949305 469.86650131 43.39296337 466.54303974 43.375 463.21875 C43.37515503 460.90051732 43.37664468 458.58228438 43.37940979 456.26405334 C43.38079488 451.4009355 43.3682236 446.53811215 43.34545898 441.67504883 C43.31718525 435.46698736 43.31978024 429.25941931 43.3325491 423.05132198 C43.33953696 418.25978958 43.33167974 413.46836935 43.31929207 408.67685127 C43.31479989 406.38970941 43.31442108 404.10255541 43.31835747 401.81541252 C43.33774356 380.62444034 41.17338603 363.67823171 25.671875 347.94921875 C13.9662177 336.65285016 0.33783719 330.50050791 -16.12109375 329.87890625 C-33.0076618 330.56871704 -47.41142485 337.18685069 -59.12109375 349.25390625 Z M-254.12109375 416.25390625 C-254.12109375 421.53390625 -254.12109375 426.81390625 -254.12109375 432.25390625 C-200.99109375 432.25390625 -147.86109375 432.25390625 -93.12109375 432.25390625 C-93.12109375 426.97390625 -93.12109375 421.69390625 -93.12109375 416.25390625 C-146.25109375 416.25390625 -199.38109375 416.25390625 -254.12109375 416.25390625 Z M60.87890625 416.25390625 C60.87890625 421.53390625 60.87890625 426.81390625 60.87890625 432.25390625 C114.00890625 432.25390625 167.13890625 432.25390625 221.87890625 432.25390625 C221.87890625 426.97390625 221.87890625 421.69390625 221.87890625 416.25390625 C168.74890625 416.25390625 115.61890625 416.25390625 60.87890625 416.25390625 Z M-229.12109375 450.25390625 C-229.12109375 463.78390625 -229.12109375 477.31390625 -229.12109375 491.25390625 C-218.23109375 491.25390625 -207.34109375 491.25390625 -196.12109375 491.25390625 C-196.12109375 477.72390625 -196.12109375 464.19390625 -196.12109375 450.25390625 C-207.01109375 450.25390625 -217.90109375 450.25390625 -229.12109375 450.25390625 Z M163.87890625 450.25390625 C163.87890625 463.78390625 163.87890625 477.31390625 163.87890625 491.25390625 C174.76890625 491.25390625 185.65890625 491.25390625 196.87890625 491.25390625 C196.87890625 477.72390625 196.87890625 464.19390625 196.87890625 450.25390625 C185.98890625 450.25390625 175.09890625 450.25390625 163.87890625 450.25390625 Z " fill="#000000" transform="translate(272.12109375,2.74609375)"/>
</svg>
