<?xml version="1.0" encoding="UTF-8"?>
<svg version="1.1" xmlns="http://www.w3.org/2000/svg" width="128" height="128">
<path d="M0 0 C4.55555556 0.55555556 4.55555556 0.55555556 6 2 C6 3.98 6 5.96 6 8 C11.94 8 17.88 8 24 8 C24 6.02 24 4.04 24 2 C27 0 27 0 29.125 0.3125 C31 1 31 1 32 2 C32 3.98 32 5.96 32 8 C38.27 8 44.54 8 51 8 C51 6.02 51 4.04 51 2 C51.66 1.34 52.32 0.68 53 0 C57.55555556 0.55555556 57.55555556 0.55555556 59 2 C59.04080783 3.99958364 59.04254356 6.00045254 59 8 C59.63091553 7.99476318 60.26183105 7.98952637 60.91186523 7.98413086 C63.75373347 7.96342174 66.59558588 7.95035934 69.4375 7.9375 C70.92733398 7.92493164 70.92733398 7.92493164 72.44726562 7.91210938 C73.39150391 7.90888672 74.33574219 7.90566406 75.30859375 7.90234375 C76.62041626 7.89448853 76.62041626 7.89448853 77.95874023 7.88647461 C80 8 80 8 81 9 C81.0995704 10.33606133 81.13074303 11.67731142 81.13371277 13.01707458 C81.14011024 14.3147879 81.14011024 14.3147879 81.14663696 15.63871765 C81.14618378 16.59510635 81.14573059 17.55149506 81.14526367 18.53686523 C81.14862228 19.53841644 81.1519809 20.53996765 81.15544128 21.5718689 C81.16498297 24.90078961 81.16689599 28.2296602 81.16796875 31.55859375 C81.17117904 33.86165895 81.17454293 36.16472394 81.17805481 38.4677887 C81.1840541 43.30250522 81.18589388 48.13720384 81.18530273 52.97192383 C81.18520105 59.18098042 81.1988559 65.3899228 81.21607494 71.59895229 C81.22716841 76.35745272 81.22922276 81.1159253 81.22869301 85.87443733 C81.22987704 88.16427059 81.23432231 90.45410448 81.24202538 92.74392509 C81.25177208 95.94061258 81.24896837 99.13704911 81.24291992 102.33374023 C81.24853943 103.28810471 81.25415894 104.24246918 81.25994873 105.22575378 C81.25575424 106.09371582 81.25155975 106.96167786 81.24723816 107.85594177 C81.24778293 108.61235679 81.24832769 109.3687718 81.24888897 110.14810848 C81 112 81 112 79 114 C77.18492985 114.25168228 77.18492985 114.25168228 74.94532776 114.25396729 C74.09708435 114.25960693 73.24884094 114.26524658 72.37489319 114.27105713 C70.97611183 114.26498444 70.97611183 114.26498444 69.54907227 114.25878906 C68.56848846 114.2622937 67.58790466 114.26579834 66.5776062 114.26940918 C63.32380167 114.27823909 60.07021314 114.27237241 56.81640625 114.265625 C54.56200621 114.2669714 52.30760644 114.26891171 50.0532074 114.27142334 C45.32279706 114.2743764 40.59246214 114.27007149 35.86206055 114.26074219 C29.79100057 114.24935412 23.72011753 114.25590196 17.64906406 114.26788712 C12.99174155 114.27510635 8.33446114 114.27281737 3.67713737 114.26763153 C1.43837399 114.26629487 -0.80039319 114.26794331 -3.03915215 114.27259064 C-6.16609731 114.27765612 -9.29275411 114.26994485 -12.41967773 114.25878906 C-13.35017441 114.26283752 -14.28067108 114.26688599 -15.23936462 114.27105713 C-16.09042786 114.26541748 -16.94149109 114.25977783 -17.81834412 114.25396729 C-18.55778983 114.25321323 -19.29723555 114.25245918 -20.05908871 114.25168228 C-22 114 -22 114 -25 112 C-25.29296875 108.9609375 -25.29296875 108.9609375 -25.1875 105.375 C-25.16042969 104.18648438 -25.13335938 102.99796875 -25.10546875 101.7734375 C-25.07066406 100.85820313 -25.03585938 99.94296875 -25 99 C-25.59538574 99.01047363 -26.19077148 99.02094727 -26.80419922 99.03173828 C-29.49442343 99.07323949 -32.18458037 99.09930704 -34.875 99.125 C-35.81214844 99.14175781 -36.74929687 99.15851563 -37.71484375 99.17578125 C-38.61074219 99.18222656 -39.50664063 99.18867187 -40.4296875 99.1953125 C-41.25710449 99.20578613 -42.08452148 99.21625977 -42.93701172 99.22705078 C-45 99 -45 99 -47 97 C-47.37890625 94.6796875 -47.37890625 94.6796875 -47 92 C-45.27734375 89.6328125 -45.27734375 89.6328125 -42.9375 87.125 C-30.97102521 73.08885189 -26.02450794 54.12965824 -25.75390625 35.94921875 C-25.72101696 34.43163379 -25.68780463 32.9140558 -25.65429688 31.39648438 C-25.60663804 29.02860569 -25.56206118 26.66076473 -25.52319336 24.29272461 C-25.48363389 21.99045799 -25.43211523 19.6887046 -25.37890625 17.38671875 C-25.3704921 16.67529221 -25.36207794 15.96386566 -25.35340881 15.23088074 C-25.2268401 10.2268401 -25.2268401 10.2268401 -23 8 C-20.84521484 7.77294922 -20.84521484 7.77294922 -18.2109375 7.8046875 C-17.26992188 7.81113281 -16.32890625 7.81757813 -15.359375 7.82421875 C-14.37453125 7.84097656 -13.3896875 7.85773437 -12.375 7.875 C-11.38242187 7.88402344 -10.38984375 7.89304687 -9.3671875 7.90234375 C-6.91121866 7.92595884 -4.45572832 7.95889201 -2 8 C-2.04125 7.05125 -2.0825 6.1025 -2.125 5.125 C-2 2 -2 2 0 0 Z M-17 16 C-17 20.62 -17 25.24 -17 30 C12.7 30 42.4 30 73 30 C73 25.38 73 20.76 73 16 C68.38 16 63.76 16 59 16 C58.67 17.98 58.34 19.96 58 22 C56.35 22.33 54.7 22.66 53 23 C52.34 20.69 51.68 18.38 51 16 C44.73 16 38.46 16 32 16 C31.34 18.31 30.68 20.62 30 23 C27.525 22.505 27.525 22.505 25 22 C24.505 19.03 24.505 19.03 24 16 C18.06 16 12.12 16 6 16 C5.34 18.31 4.68 20.62 4 23 C1.525 22.505 1.525 22.505 -1 22 C-1.33 20.02 -1.66 18.04 -2 16 C-6.95 16 -11.9 16 -17 16 Z M-17 39 C-17.66 44.61 -18.32 50.22 -19 56 C-21.91148517 66.89727308 -25.70033276 76.12152705 -31 86 C-31.66988518 87.33171921 -32.33720647 88.66473712 -33 90 C-21.7953157 90.25526903 -10.59132668 90.45051756 0.61567688 90.56993389 C5.82018989 90.62726051 11.02270894 90.70495813 16.22607422 90.82983398 C21.25129655 90.94967488 26.27460615 91.0151888 31.30114746 91.04364967 C33.21510942 91.06392026 35.12897064 91.10350949 37.04211426 91.16303062 C47.67238704 91.82587896 47.67238704 91.82587896 56.93377686 87.59713745 C58.99763216 84.80518687 60.54968219 82.14681968 62 79 C62.64453125 77.88109375 63.2890625 76.7621875 63.953125 75.609375 C69.47617147 63.43205568 71.88474878 52.38301463 73 39 C43.3 39 13.6 39 -17 39 Z M72 77 C70.92851892 78.81606962 69.89397772 80.65395965 68.875 82.5 C61.57987552 95.21006224 61.57987552 95.21006224 56 98 C53.69275983 98.12120299 51.38203172 98.1775357 49.07177734 98.20532227 C48.35947464 98.21522186 47.64717194 98.22512146 46.9132843 98.23532104 C44.55420274 98.26695858 42.19510103 98.2917023 39.8359375 98.31640625 C38.20211253 98.33697384 36.56829292 98.35797026 34.93447876 98.37937927 C30.63057784 98.43462013 26.32662874 98.4840205 22.02264404 98.53222656 C17.63223982 98.5824269 13.24190571 98.63812061 8.8515625 98.69335938 C0.23443425 98.80096558 -8.38275258 98.90240506 -17 99 C-17 100.98 -17 102.96 -17 105 C12.7 105 42.4 105 73 105 C73 95.76 73 86.52 73 77 C72.67 77 72.34 77 72 77 Z " fill="#FFFFFF" transform="translate(47,7)"/>
</svg>
