<?xml version="1.0" encoding="UTF-8"?>
<svg version="1.1" xmlns="http://www.w3.org/2000/svg" width="128" height="128">
<path d="M0 0 C4.22897154 1.94586331 7.03527128 4.63275948 10.3125 7.875 C10.87517578 8.40480469 11.43785156 8.93460938 12.01757812 9.48046875 C13.61328125 11.0546875 13.61328125 11.0546875 16 14 C15.72043496 17.3501158 14.33926094 19.03955723 12.02140808 21.3730011 C11.38633835 22.01942062 10.75126862 22.66584015 10.09695435 23.33184814 C9.39617767 24.02969421 8.695401 24.72754028 7.97338867 25.4465332 C6.87090034 26.56172585 6.87090034 26.56172585 5.74613953 27.69944763 C3.3112243 30.15778769 0.86523639 32.60474175 -1.58203125 35.05078125 C-3.27525575 36.75110256 -4.9681789 38.451724 -6.66081238 40.15263367 C-10.2108282 43.71610597 -13.76674121 47.27357008 -17.32641602 50.82739258 C-21.89678088 55.39185218 -26.4486125 59.97431524 -30.99577808 64.56187153 C-34.48635572 68.07823872 -37.98827709 71.583133 -41.49359703 75.08479881 C-43.1773312 76.77023157 -44.85706103 78.45967415 -46.5327549 80.15310097 C-48.87189226 82.51425948 -51.22621809 84.85913576 -53.58520508 87.20043945 C-54.62726105 88.26239029 -54.62726105 88.26239029 -55.69036865 89.34579468 C-56.65566246 90.29427528 -56.65566246 90.29427528 -57.64045715 91.26191711 C-58.1959213 91.81809377 -58.75138544 92.37427042 -59.32368183 92.94730091 C-61 94 -61 94 -63.08220482 93.77424622 C-65.70078038 92.71708316 -67.22663323 91.16990107 -69.23364258 89.1862793 C-70.05741898 88.37841476 -70.88119537 87.57055023 -71.72993469 86.73820496 C-72.60925156 85.85908951 -73.48856842 84.97997406 -74.39453125 84.07421875 C-75.75465584 82.72551445 -75.75465584 82.72551445 -77.14225769 81.3495636 C-79.05675543 79.44587495 -80.96764329 77.53919535 -82.8737793 75.62719727 C-85.31963221 73.17543502 -87.78327645 70.74245089 -90.25217152 68.31392193 C-92.60268197 65.99542908 -94.93503525 63.65881902 -97.26953125 61.32421875 C-98.15896927 60.45117599 -99.04840729 59.57813324 -99.96479797 58.67863464 C-100.77281357 57.86131363 -101.58082916 57.04399261 -102.41333008 56.2019043 C-103.13184647 55.48544235 -103.85036285 54.76898041 -104.59065247 54.0308075 C-106 52 -106 52 -105.80584717 49.84034729 C-104.85506937 47.66901579 -103.75794321 46.41547885 -102.05859375 44.765625 C-101.47529297 44.19199219 -100.89199219 43.61835937 -100.29101562 43.02734375 C-99.37352539 42.14755859 -99.37352539 42.14755859 -98.4375 41.25 C-97.82197266 40.64800781 -97.20644531 40.04601563 -96.57226562 39.42578125 C-95.05485187 37.94365619 -93.52829404 36.4709033 -92 35 C-87.99482604 36.60373148 -85.3228902 39.42113986 -82.359375 42.4453125 C-81.83232971 42.97518768 -81.30528442 43.50506287 -80.76226807 44.05099487 C-79.08674325 45.73767825 -77.41832278 47.43119564 -75.75 49.125 C-74.61244149 50.27259388 -73.47442564 51.41973461 -72.3359375 52.56640625 C-69.55196535 55.37238137 -66.7743424 58.18450464 -64 61 C-60.82716634 59.59879754 -58.70831007 57.94854242 -56.27636719 55.48754883 C-55.56172302 54.76952591 -54.84707886 54.05150299 -54.11077881 53.3117218 C-53.34719055 52.53467392 -52.58360229 51.75762604 -51.796875 50.95703125 C-51.00025452 50.1552092 -50.20363403 49.35338715 -49.38287354 48.52726746 C-46.8337925 45.96037582 -44.2914714 43.38692442 -41.75 40.8125 C-39.22200181 38.25675608 -36.69252167 35.7025261 -34.15997314 33.15129089 C-32.58547555 31.5646798 -31.01365686 29.97540406 -29.44500732 28.38301086 C-25.34273282 24.2438969 -21.14579272 20.30139293 -16.72857666 16.5002594 C-14.71689746 14.75429077 -12.81240508 12.92680156 -10.9375 11.03515625 C-10.28652344 10.38095703 -9.63554688 9.72675781 -8.96484375 9.05273438 C-8.31644531 8.39595703 -7.66804688 7.73917969 -7 7.0625 C-6.32066406 6.37865234 -5.64132813 5.69480469 -4.94140625 4.99023438 C-3.29191641 3.32912841 -1.6448332 1.66571487 0 0 Z " fill="#FFFFFF" transform="translate(109,17)"/>
</svg>
