<?xml version="1.0" encoding="UTF-8"?>
<svg version="1.1" xmlns="http://www.w3.org/2000/svg" width="128" height="128">
<path d="M0 0 C3.01675788 1.9909388 5.46641372 4.43393184 8 7 C8.80695312 7.80566406 9.61390625 8.61132812 10.4453125 9.44140625 C12.07756516 11.07615471 13.70092222 12.71986607 15.3125 14.375 C17.39203705 16.40617572 19.48537813 18.30130692 21.6875 20.19140625 C26.69803152 24.5344163 31.33682462 29.22776449 36 33.9375 C36.87011719 34.81212891 37.74023438 35.68675781 38.63671875 36.58789062 C40.76013549 38.72297449 42.88116378 40.86037205 45 43 C48.30002149 41.56073901 50.45210188 39.78247174 52.97070312 37.22460938 C53.73829956 36.45040649 54.505896 35.67620361 55.29675293 34.87854004 C56.11663696 34.04205933 56.936521 33.20557861 57.78125 32.34375 C58.63174927 31.48567749 59.48224854 30.62760498 60.35852051 29.74353027 C63.07718441 27.00042222 65.78933693 24.25101319 68.5 21.5 C72.0671971 17.87970268 75.64087133 14.26598778 79.21875 10.65625 C80.03863403 9.81976929 80.85851807 8.98328857 81.70324707 8.12145996 C82.85464172 6.96015564 82.85464172 6.96015564 84.02929688 5.77539062 C84.70118042 5.09303345 85.37306396 4.41067627 86.06530762 3.7076416 C90.30286054 -0.03260244 94.01022545 -0.4840473 99.51953125 -0.39453125 C103.55928065 0.24801157 105.25017157 2.0386463 108 5 C109.17006856 7.34013712 109.33836406 9.01457952 109.5 11.625 C109.60828125 12.85089844 109.60828125 12.85089844 109.71875 14.1015625 C107.80353391 21.82487955 98.72301151 28.41136082 93.22265625 33.875 C92.41130722 34.68493408 91.59995819 35.49486816 90.76402283 36.3293457 C88.19920861 38.88861015 85.63092052 41.4443553 83.0625 44 C81.31161717 45.74586133 79.56096387 47.49195287 77.81054688 49.23828125 C73.54301384 53.49485198 69.27263134 57.74854716 65 62 C69.6721395 67.61971784 74.67055112 72.78711096 79.86328125 77.92578125 C80.6958696 78.75458298 81.52845795 79.5833847 82.38627625 80.43730164 C85.02593281 83.06481308 87.66881155 85.6890457 90.3125 88.3125 C93.81143339 91.78491914 97.30709883 95.26057996 100.80078125 98.73828125 C101.60800125 99.53720291 102.41522125 100.33612457 103.24690247 101.15925598 C103.98824936 101.89729965 104.72959625 102.63534332 105.4934082 103.39575195 C106.14815628 104.04526321 106.80290436 104.69477448 107.47749329 105.3639679 C110.79136461 108.92493733 110.32998801 112.6423953 110.28125 117.296875 C109.89828572 120.97758721 108.82193584 122.63567538 106 125 C102.18094875 127.47115081 98.15563147 127.46192258 93.76269531 126.80786133 C82.43319427 123.49491338 71.01345622 107.11952574 62.875 98.9375 C61.23460915 97.29208424 59.59398605 95.64689999 57.953125 94.00195312 C53.96606742 90.00396822 49.98189006 86.0031313 46 82 C40.48015764 86.58728287 35.4227647 91.48839401 30.3984375 96.609375 C28.75810104 98.26721263 27.11746726 99.92475612 25.4765625 101.58203125 C22.91464993 104.17499432 20.3551492 106.7702085 17.80078125 109.37060547 C15.3192242 111.89444019 12.82835984 114.4087761 10.3359375 116.921875 C9.19359146 118.0921524 9.19359146 118.0921524 8.02816772 119.28607178 C6.95147324 120.36794769 6.95147324 120.36794769 5.85302734 121.47167969 C4.91540054 122.42382355 4.91540054 122.42382355 3.95883179 123.39520264 C1.13063211 125.71224048 -1.62274095 126.92925039 -5.28125 127.1171875 C-10.30296079 126.56904301 -13.34375202 125.77050573 -17 122 C-18.20033249 119.59933502 -18.23537492 117.9290818 -18.3125 115.25 C-18.34988281 114.40953125 -18.38726563 113.5690625 -18.42578125 112.703125 C-17.2441976 105.20169489 -9.98503167 99.72778592 -4.859375 94.6640625 C-3.97719299 93.78471039 -3.09501099 92.90535828 -2.18609619 91.99935913 C0.14474446 89.6777828 2.47984578 87.36060903 4.81713867 85.04553223 C7.20727537 82.67596154 9.59166481 80.30062271 11.9765625 77.92578125 C16.64579446 73.27855199 21.32069539 68.63708575 26 64 C24.56400605 60.70801459 22.79792417 58.56769699 20.24047852 56.06103516 C19.46950333 55.2998941 18.69852814 54.53875305 17.90419006 53.75454712 C17.07084641 52.94093719 16.23750275 52.12732727 15.37890625 51.2890625 C13.62162512 49.55220441 11.86446748 47.81522136 10.10742188 46.078125 C7.3338156 43.34800604 4.55780151 40.62039259 1.77905273 37.89550781 C-0.90245954 35.26232609 -3.57466212 32.61996504 -6.24609375 29.9765625 C-7.07741318 29.16700104 -7.9087326 28.35743958 -8.76524353 27.52334595 C-17.66588825 18.69952824 -17.66588825 18.69952824 -18.21484375 12.62109375 C-17.58827202 7.68794452 -16.81713887 4.49904397 -13 1 C-8.83158095 -1.5473672 -4.55759774 -1.56163498 0 0 Z " fill="#FFFFFF" transform="translate(18,1)"/>
</svg>
