<?xml version="1.0" encoding="UTF-8"?>
<svg version="1.1" xmlns="http://www.w3.org/2000/svg" width="128" height="128">
<path d="M0 0 C7.31090467 5.31028549 12.81998548 12.44160665 14.375 21.4921875 C14.60066432 25.30964602 14.56465862 29.10736857 14.5 32.9296875 C14.49097656 33.94740234 14.48195313 34.96511719 14.47265625 36.01367188 C14.44924698 38.50675906 14.416457 40.99934609 14.375 43.4921875 C15.30699219 43.59789062 16.23898438 43.70359375 17.19921875 43.8125 C21.87408006 44.81302382 22.68643949 46.65138677 25.375 50.4921875 C26.36999435 53.47717056 26.51290807 55.48445029 26.53613281 58.6027832 C26.54574036 59.64429031 26.5553479 60.68579742 26.56524658 61.75886536 C26.56949646 62.88386948 26.57374634 64.0088736 26.578125 65.16796875 C26.58382507 66.32588425 26.58952515 67.48379974 26.59539795 68.67680359 C26.60484996 71.12884608 26.61138272 73.5809013 26.61523438 76.03295898 C26.62493442 79.77936036 26.65595452 83.52521191 26.6875 87.27148438 C26.69403066 89.65364258 26.69928088 92.0358047 26.703125 94.41796875 C26.7154718 95.53690018 26.7278186 96.6558316 26.74053955 97.80867004 C26.72447339 103.43492471 26.64985916 107.6780648 23.375 112.4921875 C19.04336712 116.4177298 15.2146633 116.62232217 9.52026367 116.65332031 C8.48067757 116.66076767 8.48067757 116.66076767 7.42008972 116.66836548 C5.12770594 116.68296766 2.83539139 116.6897862 0.54296875 116.6953125 C-1.05262758 116.70106601 -2.64822389 116.70682372 -4.24382019 116.71258545 C-7.59036582 116.72309022 -10.93688747 116.72893616 -14.28344727 116.73242188 C-18.56401951 116.73790237 -22.84427299 116.7619229 -27.12474537 116.79039383 C-30.42165542 116.80905241 -33.71848923 116.81422754 -37.01544762 116.81575775 C-38.59305245 116.81877807 -40.17065614 116.82678563 -41.748209 116.83994293 C-43.95974324 116.85706965 -46.17050574 116.85510738 -48.38208008 116.84863281 C-49.63878006 116.85227844 -50.89548004 116.85592407 -52.19026184 116.85968018 C-56.84327168 116.36184105 -60.27252778 114.98457064 -63.4375 111.4921875 C-65.47202178 108.0656245 -65.7570888 105.28126477 -65.78613281 101.3815918 C-65.79574036 100.34008469 -65.8053479 99.29857758 -65.81524658 98.22550964 C-65.81949646 97.10050552 -65.82374634 95.9755014 -65.828125 94.81640625 C-65.83382507 93.65849075 -65.83952515 92.50057526 -65.84539795 91.30757141 C-65.85484996 88.85552892 -65.86138272 86.4034737 -65.86523438 83.95141602 C-65.87493442 80.20501464 -65.90595452 76.45916309 -65.9375 72.71289062 C-65.94403066 70.33073242 -65.94928088 67.9485703 -65.953125 65.56640625 C-65.9654718 64.44747482 -65.9778186 63.3285434 -65.99053955 62.17570496 C-65.97155409 55.52712958 -65.29317285 51.17680715 -61.3125 45.6796875 C-58.91288497 43.99106952 -56.49164352 43.91386651 -53.625 43.4921875 C-53.64594727 42.87811035 -53.66689453 42.2640332 -53.68847656 41.63134766 C-53.77268034 38.79346733 -53.82398423 35.95585098 -53.875 33.1171875 C-53.90851562 32.15167969 -53.94203125 31.18617187 -53.9765625 30.19140625 C-54.1149386 19.8823865 -50.83978389 10.98074668 -43.625 3.4921875 C-30.98193646 -7.39763871 -14.32583484 -8.22882775 0 0 Z M-41.21875 14.359375 C-47.3398091 23.6429813 -45.625 31.75747273 -45.625 43.4921875 C-28.465 43.4921875 -11.305 43.4921875 6.375 43.4921875 C7.14251291 25.35407101 7.14251291 25.35407101 -0.8125 10.5546875 C-7.33288493 4.80790756 -13.96182248 2.70879564 -22.6328125 3.05078125 C-30.45185694 4.20424342 -36.39190452 8.18920931 -41.21875 14.359375 Z M-56.625 53.4921875 C-56.72368509 55.14410146 -56.75298837 56.80021967 -56.75439453 58.45507812 C-56.75754669 59.51287476 -56.76069885 60.57067139 -56.76394653 61.66052246 C-56.7619223 62.81153442 -56.75989807 63.96254639 -56.7578125 65.1484375 C-56.75876923 66.32104126 -56.75972595 67.49364502 -56.76071167 68.70178223 C-56.7613937 71.18676812 -56.75953784 73.67175579 -56.75537109 76.15673828 C-56.75002319 79.97562637 -56.75531536 83.79439685 -56.76171875 87.61328125 C-56.76105797 90.02083359 -56.75977682 92.42838587 -56.7578125 94.8359375 C-56.75983673 95.98694946 -56.76186096 97.13796143 -56.76394653 98.32385254 C-56.76079437 99.38164917 -56.75764221 100.4394458 -56.75439453 101.52929688 C-56.75359894 102.46559937 -56.75280334 103.40190186 -56.75198364 104.36657715 C-56.86189643 106.4765181 -56.86189643 106.4765181 -55.625 107.4921875 C-53.39112794 107.5918267 -51.15406141 107.62018545 -48.91796875 107.62158203 C-47.86677353 107.62421051 -47.86677353 107.62421051 -46.79434204 107.62689209 C-44.46703651 107.63131016 -42.13980636 107.62837279 -39.8125 107.625 C-38.20206691 107.62567305 -36.59163391 107.62664309 -34.98120117 107.62789917 C-31.60171545 107.62937608 -28.2222561 107.62722181 -24.84277344 107.62255859 C-20.50123495 107.6168613 -16.15975827 107.62014035 -11.81822205 107.62613106 C-8.49149099 107.62973686 -5.1647747 107.628598 -1.83804321 107.62600327 C-0.23678582 107.62533405 1.3644729 107.62616224 2.96572876 107.62848282 C5.19984511 107.63100966 7.43386 107.62716835 9.66796875 107.62158203 C10.9418042 107.62078644 12.21563965 107.61999084 13.52807617 107.61917114 C16.27462137 107.8175315 16.27462137 107.8175315 17.375 106.4921875 C17.47368509 104.84027354 17.50298837 103.18415533 17.50439453 101.52929688 C17.50912277 99.94260193 17.50912277 99.94260193 17.51394653 98.32385254 C17.5119223 97.17284058 17.50989807 96.02182861 17.5078125 94.8359375 C17.50924759 93.07703186 17.50924759 93.07703186 17.51071167 91.28259277 C17.5113937 88.79760688 17.50953784 86.31261921 17.50537109 83.82763672 C17.50002319 80.00874863 17.50531536 76.18997815 17.51171875 72.37109375 C17.51105797 69.96354141 17.50977682 67.55598913 17.5078125 65.1484375 C17.51084885 63.42191956 17.51084885 63.42191956 17.51394653 61.66052246 C17.51079437 60.60272583 17.50764221 59.5449292 17.50439453 58.45507812 C17.50359894 57.51877563 17.50280334 56.58247314 17.50198364 55.61779785 C17.61189643 53.5078569 17.61189643 53.5078569 16.375 52.4921875 C14.14112794 52.3925483 11.90406141 52.36418955 9.66796875 52.36279297 C8.61677353 52.36016449 8.61677353 52.36016449 7.54434204 52.35748291 C5.21703651 52.35306484 2.88980636 52.35600221 0.5625 52.359375 C-1.04793309 52.35870195 -2.65836609 52.35773191 -4.26879883 52.35647583 C-7.64828455 52.35499892 -11.0277439 52.35715319 -14.40722656 52.36181641 C-18.74876505 52.3675137 -23.09024173 52.36423465 -27.43177795 52.35824394 C-30.75850901 52.35463814 -34.0852253 52.355777 -37.41195679 52.35837173 C-39.01321418 52.35904095 -40.6144729 52.35821276 -42.21572876 52.35589218 C-44.44984511 52.35336534 -46.68386 52.35720665 -48.91796875 52.36279297 C-50.1918042 52.36358856 -51.46563965 52.36438416 -52.77807617 52.36520386 C-55.52462137 52.1668435 -55.52462137 52.1668435 -56.625 53.4921875 Z " fill="#A2AF9A" transform="translate(83.625,8.5078125)"/>
<path d="M0 0 C3.54278538 1.41711415 4.74140328 2.59872922 6.8125 5.8125 C8.10627958 9.28527677 8.53441905 11.33541221 8 15 C5.96006092 18.6578218 4.49580738 20.66946174 1 23 C0.49218893 25.36094226 0.49218893 25.36094226 0.4375 28 C0.20763359 32.79236641 0.20763359 32.79236641 -2 35 C-6.55555556 34.44444444 -6.55555556 34.44444444 -8 33 C-8.10510736 31.39711274 -8.1842028 29.79248158 -8.25 28.1875 C-8.58260443 23.87383752 -8.58260443 23.87383752 -11.4375 20.625 C-12.283125 20.08875 -13.12875 19.5525 -14 19 C-16.38050753 15.2694731 -16.19268613 12.45149974 -15.6171875 8.19140625 C-14.6644595 4.80861884 -12.71321026 3.11762752 -10 1 C-6.801457 -0.5992715 -3.47898371 -0.36127908 0 0 Z M-6 9 C-6.33 10.65 -6.66 12.3 -7 14 C-4.525 14.495 -4.525 14.495 -2 15 C-1.67 13.35 -1.34 11.7 -1 10 C-2.65 9.67 -4.3 9.34 -6 9 Z " fill="#A2AF9B" transform="translate(68,71)"/>
</svg>
