<?xml version="1.0" encoding="UTF-8"?>
<svg version="1.1" xmlns="http://www.w3.org/2000/svg" width="128" height="128">
<path d="M0 0 C6.13956685 3.76792815 12.27824441 4.23090636 19.3359375 3.43359375 C23.40695021 2.20498469 26.97123049 0.3079724 30.54296875 -1.98046875 C35.55521293 -5.12299663 39.0006141 -6.26034412 44.91796875 -5.26953125 C51.93748295 -3.22831549 57.37154037 1.35721125 61.3359375 7.43359375 C66.00820705 16.70128632 67.69517992 26.19851844 67.7109375 36.49609375 C67.73542969 37.34236328 67.75992188 38.18863281 67.78515625 39.06054688 C67.81738798 46.02797233 66.28060587 51.45501365 61.30078125 56.4921875 C60.29724609 57.17474609 60.29724609 57.17474609 59.2734375 57.87109375 C58.60183594 58.34417969 57.93023437 58.81726563 57.23828125 59.3046875 C53.26507651 61.66250305 49.52362827 61.59334389 45.05395508 61.6105957 C43.94603607 61.6204525 43.94603607 61.6204525 42.81573486 61.63050842 C40.37064508 61.6502219 37.92561675 61.66190125 35.48046875 61.671875 C34.64369787 61.67595053 33.80692699 61.68002605 32.94479942 61.68422508 C28.51357648 61.70508011 24.08238444 61.71938281 19.65112305 61.72875977 C15.08593191 61.73980736 10.52123046 61.77418955 5.95621204 61.81393147 C2.43618396 61.84014716 -1.08372848 61.8484561 -4.6038456 61.85204124 C-6.28587453 61.85689646 -7.96789867 61.86848 -9.64983177 61.88707924 C-27.86163115 62.0759098 -27.86163115 62.0759098 -34.1615448 55.98603821 C-41.48445019 47.73321947 -40.27115187 38.64055377 -39.85498047 28.19482422 C-39.12703199 17.66656687 -35.83932631 8.29969259 -28.6640625 0.43359375 C-19.17269932 -7.64416215 -9.98647524 -6.25279305 0 0 Z M-24.2890625 8.93359375 C-31.63469927 18.43553034 -32.68087628 31.90002027 -31.6640625 43.43359375 C-30.760672 46.62267106 -29.89142277 47.80645086 -27.6640625 50.43359375 C-22.784753 52.94774134 -19.18874516 53.81064939 -13.63061523 53.82177734 C-12.63404404 53.82966278 -12.63404404 53.82966278 -11.61734009 53.83770752 C-9.44386562 53.85080008 -7.2711368 53.84220955 -5.09765625 53.83203125 C-3.57503622 53.83405485 -2.05241714 53.83696867 -0.52980042 53.84072876 C2.6516956 53.84513733 5.83293791 53.83876782 9.0144043 53.82470703 C13.08193647 53.80760116 17.14887531 53.81747412 21.21638584 53.83542442 C24.3571974 53.84628971 27.49786936 53.84280365 30.63868523 53.83504105 C32.13812265 53.83304737 33.63757296 53.83546893 35.13699532 53.84247971 C37.23563115 53.85014152 39.33331912 53.8384263 41.43188477 53.82177734 C43.21889549 53.81819717 43.21889549 53.81819717 45.04200745 53.81454468 C50.01378889 53.2395462 53.26202937 51.59457551 56.6484375 47.93359375 C61.4495033 40.82090368 59.49498334 31.32316862 58.02734375 23.328125 C56.35017955 16.30677656 53.44493517 10.54259142 48.3359375 5.43359375 C44.3337984 3.07335787 41.78281626 3.43575754 37.3359375 4.43359375 C35.36588912 5.34550548 33.42757558 6.32853354 31.5234375 7.37109375 C22.27909185 12.10128783 14.65331617 13.34830087 4.3359375 11.43359375 C-0.27169147 9.92629187 -4.32734058 7.65378731 -8.4765625 5.18359375 C-14.8368403 1.69167653 -19.39830757 4.27573191 -24.2890625 8.93359375 Z " fill="#A2AF9B" transform="translate(39.6640625,66.56640625)"/>
<path d="M0 0 C8.15540247 4.79269542 12.8281748 10.62859 15.71875 19.63671875 C17.87741152 29.05516453 16.21372998 37.15008581 11.75 45.5625 C6.21645978 52.40661553 0.29507092 58.07112394 -8.625 59.5 C-19.19290754 60.55014427 -27.61709174 59.03361644 -35.9375 52.25 C-43.08732589 45.47572052 -46.15518972 38.32564751 -46.9375 28.625 C-46.65009264 19.98587291 -43.33882069 11.95427262 -37.625 5.5 C-26.90825903 -3.3266632 -12.84535253 -5.97609321 0 0 Z M-34.21484375 15.40234375 C-38.10175283 21.18425559 -38.24880971 26.72581648 -37.625 33.5 C-35.55370451 40.14994866 -32.04382818 45.40308801 -25.875 48.8125 C-19.90297691 51.47918198 -14.33546997 52.24456104 -8 50.4375 C-1.29505382 47.83977216 3.78123984 43.46512036 6.71484375 36.8359375 C8.44124528 30.72713208 8.42595314 24.05241459 5.875 18.1875 C2.70730178 12.80690621 -1.9906719 8.78913928 -7.5625 6.0625 C-18.80785003 3.99702755 -26.78991046 6.57316776 -34.21484375 15.40234375 Z " fill="#A2AF9B" transform="translate(67.625,2.5)"/>
</svg>
